<svg id="Layer_5" enable-background="new 0 0 64 64" height="512" viewBox="0 0 64 64" width="512" xmlns="http://www.w3.org/2000/svg"><g fill="#f0bc5e"><path d="m26.964 9h-8.964c-2.757 0-5 2.243-5 5v14.986l.127.185c1.109-.739 2.44-1.171 3.873-1.171.34 0 .673.024 1 .071v-13.071c0-.552.448-1 1-1h7 .006c-.004-.123-.006-.246-.006-.37 0-1.646.347-3.211.964-4.63z"/><path d="m58 9h-8.964c.617 1.419.964 2.984.964 4.63 0 .124-.013.246-.017.37h7.017c.552 0 1 .448 1 1v24c0 .552-.448 1-1 1h-35.103-.005c-.268.262-.556.502-.863.718l1.641 2.398c1.187.485 2.291 1.125 3.303 1.883h32.027c2.757 0 5-2.243 5-5v-25.999c0-2.757-2.243-5-5-5z"/><path d="m48 24v4h-2v8h9v-4-4-4z"/></g><path d="m16 52h2v2h-2z"/><path d="m38 11c1.654 0 3-1.346 3-3s-1.346-3-3-3-3 1.346-3 3 1.346 3 3 3zm0-4c.552 0 1 .449 1 1s-.448 1-1 1-1-.449-1-1 .448-1 1-1z"/><path d="m41 21h-2v-6h2v-2h-6v2h2v6h-2v2h6z"/><path d="m57 13h-6.032c-.332-6.671-5.847-12-12.598-12h-.74c-6.751 0-12.266 5.329-12.598 12h-6.032c-1.103 0-2 .897-2 2v12c-4.411 0-8 3.589-8 8 0 2.765 1.41 5.205 3.549 6.643-6.662 1.934-11.549 8.081-11.549 15.357v6h32v-6c0-.679-.056-1.343-.139-2h20.139c1.654 0 3-1.346 3-3 0-2.414-1.721-4.434-4-4.899v-2.101h-2v2h-20.53c-2.035-2.532-4.821-4.428-8.019-5.357.29-.195.561-.413.822-.643h34.727c1.103 0 2-.897 2-2v-24c0-1.103-.897-2-2-2zm-19.37-10h.74c5.861 0 10.63 4.769 10.63 10.63 0 2.576-.935 5.062-2.631 7l-3.823 4.37h-9.093l-3.823-4.37c-1.696-1.938-2.631-4.424-2.631-7 .001-5.861 4.77-10.63 10.631-10.63zm4.37 26h-8v-2h8zm0 2c0 2.206-1.794 4-4 4s-4-1.794-4-4zm-23.354 12.105-1.646 2.88-1.646-2.879c.541-.064 1.088-.106 1.646-.106s1.105.042 1.646.105zm-5.36.411 2.501 4.378-1.866 2.24c-.439-2.153-.711-4.345-.835-6.566.065-.02.133-.034.2-.052zm3.714 6.046 2.509 3.01c-.634 2.416-1.475 4.778-2.509 7.08-1.034-2.302-1.874-4.663-2.509-7.079zm3.914-5.994c-.124 2.221-.396 4.412-.835 6.565l-1.867-2.24 2.501-4.377c.068.018.135.032.201.052zm-17.914 13.432c0-5.622 3.339-10.468 8.131-12.693.401 5.808 1.841 11.409 4.292 16.693h-6.423v-8h-2v8h-4zm48-8c1.654 0 3 1.346 3 3 0 .551-.448 1-1 1h-20.527c-.367-1.419-.919-2.761-1.638-4zm-20 8v4h-4v-8h-2v8h-6.423c2.451-5.284 3.891-10.885 4.292-16.693 4.792 2.225 8.131 7.071 8.131 12.693zm-20-22c0-3.309 2.691-6 6-6s6 2.691 6 6-2.691 6-6 6-6-2.691-6-6zm46 4h-33.082c.684-1.178 1.082-2.542 1.082-4 0-3.719-2.555-6.845-6-7.737v-12.263h6.083c.28 2.562 1.331 4.99 3.042 6.947l3.875 4.428v4.625c0 3.309 2.691 6 6 6s6-2.691 6-6v-4.625l3.875-4.428c1.712-1.957 2.763-4.385 3.042-6.947h6.083z"/><path d="m21 17h2v2h-2z"/><path d="m21 21h2v2h-2z"/><path d="m21 25h2v2h-2z"/><path d="m46 35h9v2h-9z"/><path d="m46 31h9v2h-9z"/><path d="m46 27h9v2h-9z"/><path d="m48 23h7v2h-7z"/></svg>