<?xml version="1.0" encoding="iso-8859-1"?>
<!-- Generator: Adobe Illustrator 19.0.0, SVG Export Plug-In . SVG Version: 6.00 Build 0)  -->
<svg version="1.1" id="Capa_1" xmlns="http://www.w3.org/2000/svg" xmlns:xlink="http://www.w3.org/1999/xlink" x="0px" y="0px"
	 viewBox="0 0 496 496" style="enable-background:new 0 0 496 496;" xml:space="preserve">
<polygon style="fill:#F0BC5E;" points="32,141.336 32,405.336 128,405.336 128,373.336 152,373.336 152,341.336 232,341.336 
	232,162.824 264,162.824 264,341.336 344,341.336 344,373.336 368,373.336 368,405.336 464,405.336 464,141.336 "/>
<rect x="368" y="429.336" width="16" height="16"/>
<rect x="400" y="429.336" width="16" height="16"/>
<rect x="432" y="429.336" width="16" height="16"/>
<path d="M456,109.336h-72.264c-1.36-34.256-15.184-66.296-39.568-90.672l-11.32,11.312C355.512,52.64,368,82.776,368,114.832
	c0,32.048-12.488,62.184-35.152,84.848l11.312,11.312c23.192-23.192,36.864-53.296,39.32-85.656H456c13.232,0,24,10.768,24,24v248
	H376v-32h-24v-32h-80V154.832h-48v178.504h-80v32h-24v32H16v-248c0-13.232,10.768-24,24-24h72.512
	c2.464,32.36,16.136,62.464,39.32,85.656l11.312-11.312C140.488,177.008,128,146.88,128,114.832
	c0-32.056,12.488-62.184,35.152-84.856L151.84,18.664c-24.384,24.376-38.216,56.416-39.576,90.672H40c-22.056,0-40,17.944-40,40v248
	v8v16c0,30.872,25.12,56,56,56h384c30.88,0,56-25.128,56-56v-16v-8v-248C496,127.28,478.056,109.336,456,109.336z M240,170.832h16
	v162.504h-16V170.832z M136,381.336h168v-16H160v-16h176v16h-16v16h40v16h-40H176h-40V381.336z M302.632,413.336
	c-3.304,9.312-12.2,16-22.632,16h-64c-10.432,0-19.328-6.688-22.632-16H302.632z M480,421.336c0,22.056-17.944,40-40,40H56
	c-22.056,0-40-17.944-40-40v-8h160.808c3.72,18.232,19.872,32,39.192,32h64c19.312,0,35.472-13.768,39.192-32H480V421.336z"/>
<path d="M248,138.832c13.232,0,24-10.768,24-24s-10.768-24-24-24s-24,10.768-24,24S234.768,138.832,248,138.832z M248,106.832
	c4.408,0,8,3.592,8,8c0,4.408-3.592,8-8,8s-8-3.592-8-8S243.592,106.832,248,106.832z"/>
<path d="M298.912,165.736c13.6-13.6,21.088-31.68,21.088-50.912s-7.488-37.32-21.088-50.912L287.6,75.224
	c10.576,10.576,16.4,24.64,16.4,39.6s-5.824,29.016-16.4,39.6L298.912,165.736z"/>
<path d="M310.224,177.048l11.312,11.312C341.184,168.72,352,142.608,352,114.832c0-27.784-10.816-53.896-30.464-73.536
	l-11.312,11.312C326.848,69.224,336,91.32,336,114.832C336,138.336,326.848,160.432,310.224,177.048z"/>
<path d="M197.088,165.736l11.312-11.312c-10.576-10.576-16.4-24.64-16.4-39.6s5.824-29.024,16.4-39.6l-11.312-11.312
	c-13.6,13.6-21.088,31.68-21.088,50.912S183.488,152.144,197.088,165.736z"/>
<path d="M174.464,188.36l11.312-11.312C169.152,160.432,160,138.336,160,114.832s9.152-45.608,25.776-62.224l-11.312-11.312
	C154.816,60.928,144,87.048,144,114.832C144,142.608,154.816,168.72,174.464,188.36z"/>
<g>
</g>
<g>
</g>
<g>
</g>
<g>
</g>
<g>
</g>
<g>
</g>
<g>
</g>
<g>
</g>
<g>
</g>
<g>
</g>
<g>
</g>
<g>
</g>
<g>
</g>
<g>
</g>
<g>
</g>
</svg>
